<?xml version="1.0" encoding="utf-8"?>
<!-- Generator: Adobe Illustrator 20.0.0, SVG Export Plug-In . SVG Version: 6.00 Build 0)  -->
<svg version="1.1" id="Layer_1" xmlns="http://www.w3.org/2000/svg" xmlns:xlink="http://www.w3.org/1999/xlink" x="0px" y="0px"
	 viewBox="0 0 32 32" style="enable-background:new 0 0 32 32;" xml:space="preserve">
<path d="M13,10H8V2h5V10z M10,8h1V4h-1V8z"/>
<path d="M24,10h-5V2h5V10z M21,8h1V4h-1V8z"/>
<path d="M32,30H0V5h6v2H2v21h28V7h-4V5h6V30z"/>
<path d="M15,5h2v2h-2V5z"/>
<path d="M8,18h16v2H8V18z"/>
<path d="M8,22h16v2H8V22z"/>
<path d="M1,12h30v2H1V12z"/>
</svg>
